<svg id="조직도아이콘" xmlns="http://www.w3.org/2000/svg" xmlns:xlink="http://www.w3.org/1999/xlink" width="20.616" height="14.455" viewBox="0 0 20.616 14.455">
  <g id="그룹_331" data-name="그룹 331" transform="translate(0 0)">
    <path id="패스_162" data-name="패스 162" d="M19.806,10.762a5.834,5.834,0,0,0-3.368-2.671A3.157,3.157,0,1,0,11.706,5.36a2.365,2.365,0,0,0,.355,1.273,2.979,2.979,0,0,0,.289.382,12.11,12.11,0,0,1,2.668,7.166h4.85l.037,0a.765.765,0,0,0,.71-.814,6.442,6.442,0,0,0-.809-2.6" fill="#8c9195"/>
    <path id="패스_163" data-name="패스 163" d="M8.081,6.377a3.411,3.411,0,1,0-3.248.033A5.563,5.563,0,0,0,2.04,7.922C-.1,10.116,0,13.584,0,13.731a.75.75,0,0,0,.75.724H12.425a.75.75,0,0,0,.75-.736,8.8,8.8,0,0,0-2.1-5.733,5.768,5.768,0,0,0-3-1.609" fill="#8c9195"/>
  </g>
</svg>
