<svg id="화살표아이콘" xmlns="http://www.w3.org/2000/svg" width="10" height="16" viewBox="0 0 10 16">
  <g id="다각형_2" data-name="다각형 2" transform="translate(0 16) rotate(-90)" fill="#444" stroke-linecap="round" stroke-linejoin="round">
    <path d="M 12.87905883789062 9.5 L 3.120939016342163 9.5 C 2.727159023284912 9.5 2.39021897315979 9.28810977935791 2.219629049301147 8.933189392089844 C 2.049049139022827 8.578269958496094 2.094069004058838 8.182799339294434 2.340059041976929 7.875309467315674 L 7.219129085540771 1.776479601860046 C 7.409938812255859 1.537959575653076 7.694559097290039 1.401169538497925 7.999999046325684 1.401169538497925 C 8.305438995361328 1.401169538497925 8.590059280395508 1.537959575653076 8.780858993530273 1.776469588279724 L 13.65993881225586 7.875309467315674 C 13.90592861175537 8.182799339294434 13.95094871520996 8.578269958496094 13.78036880493164 8.933189392089844 C 13.60977935791016 9.28810977935791 13.2728385925293 9.5 12.87905883789062 9.5 Z" stroke="none"/>
    <path d="M 7.999999046325684 1.901169776916504 C 7.910248756408691 1.901169776916504 7.740188598632812 1.925549507141113 7.60956859588623 2.08882999420166 L 2.730499267578125 8.187649726867676 C 2.55320930480957 8.409259796142578 2.629328727722168 8.631380081176758 2.670289039611816 8.71658992767334 C 2.711238861083984 8.801799774169922 2.837139129638672 9 3.120939254760742 9 L 12.87905883789062 9 C 13.1628589630127 9 13.28875923156738 8.801799774169922 13.32970905303955 8.71658992767334 C 13.3706693649292 8.631380081176758 13.4467887878418 8.409259796142578 13.26949882507324 8.18765926361084 L 8.390419006347656 2.088809967041016 C 8.259809494018555 1.925549507141113 8.089748382568359 1.901169776916504 7.999999046325684 1.901169776916504 M 7.999999046325684 0.9011716842651367 C 8.435529708862305 0.9011716842651367 8.871059417724609 1.088824272155762 9.171298980712891 1.464129447937012 L 14.05036926269531 7.562959671020508 C 14.83607864379883 8.545099258422852 14.13681888580322 10 12.87905883789062 10 L 3.120939254760742 10 C 1.863179206848145 10 1.163919448852539 8.545099258422852 1.949628829956055 7.562959671020508 L 6.828699111938477 1.464129447937012 C 7.128938674926758 1.088824272155762 7.564469337463379 0.9011716842651367 7.999999046325684 0.9011716842651367 Z" stroke="none" fill="#444"/>
  </g>
</svg>
