<svg id="로그인_시계" xmlns="http://www.w3.org/2000/svg" width="46.141" height="46.141" viewBox="0 0 46.141 46.141">
  <g id="그룹_317" data-name="그룹 317" transform="translate(2923.244 5713.245)">
    <circle id="타원_82" data-name="타원 82" cx="23.071" cy="23.071" r="23.071" transform="translate(-2923.244 -5713.245)" fill="#fff"/>
    <g id="그룹_312" data-name="그룹 312" transform="translate(-2911.16 -5707.048)">
      <path id="선_17" data-name="선 17" d="M-22.453-6.076A2.547,2.547,0,0,1-25-8.623V-22.453A2.547,2.547,0,0,1-22.453-25a2.547,2.547,0,0,1,2.547,2.547V-8.623A2.547,2.547,0,0,1-22.453-6.076Z" transform="translate(33.847 25)" fill="#2c57e5"/>
      <path id="선_18" data-name="선 18" d="M-22.457-15.74A2.547,2.547,0,0,1-24.762-17.2a2.547,2.547,0,0,1,1.217-3.39l8.846-4.171a2.547,2.547,0,0,1,3.39,1.217,2.547,2.547,0,0,1-1.217,3.39l-8.846,4.171A2.537,2.537,0,0,1-22.457-15.74Z" transform="translate(25.006 38.792)" fill="#2c57e5"/>
    </g>
  </g>
</svg>
