<svg xmlns="http://www.w3.org/2000/svg" xmlns:xlink="http://www.w3.org/1999/xlink" width="24" height="24" viewBox="0 0 24 24"><g transform="translate(-340.911 -58.528)"><g transform="translate(345.404 61.614)"><g><path d="M12.943,6.323v2.6a11.984,11.984,0,0,0,.766,4.2H1.984a11.7,11.7,0,0,0,.445-1.46,12.149,12.149,0,0,0,.318-2.739v-2.6a4.734,4.734,0,0,1,3.694-4.6,5.179,5.179,0,0,1,1.4-.157,5.432,5.432,0,0,1,1.51.181,4.754,4.754,0,0,1,3.586,4.573m-5.1,9.934a1.966,1.966,0,0,1-1.922-1.568H9.767a1.966,1.966,0,0,1-1.922,1.568M5.492.365A6.317,6.317,0,0,0,1.179,6.323v2.6A10.394,10.394,0,0,1,.9,11.3a10.45,10.45,0,0,1-.819,2.255.784.784,0,0,0,.7,1.131H4.339a3.527,3.527,0,0,0,7.011,0H14.9a.785.785,0,0,0,.7-1.133,10.433,10.433,0,0,1-1.095-4.634v-2.6A6.317,6.317,0,0,0,10.2.365,8.512,8.512,0,0,0,7.846,0,8.537,8.537,0,0,0,5.492.365" transform="translate(0 0)"/></g></g><rect width="24" height="24" transform="translate(340.911 58.528)" fill="none"/></g></svg>